<svg width="160" height="154" viewBox="0 0 160 154" fill="none" xmlns="http://www.w3.org/2000/svg">
<g clip-path="url(#clip0_115_6092)">
<path d="M79.0405 111.095C79.0405 111.095 17.9558 110.075 18.0214 110.091C18.0253 111.393 17.9157 116.143 17.9157 116.143L78.3268 151.896L139.95 118.274C139.95 118.274 139.979 113.46 140.043 112.274C139.903 111.979 79.0405 111.095 79.0405 111.095Z" fill="#34495E"/>
<g filter="url(#filter0_d_115_6092)">
<path d="M80.2742 40.4158C80.2742 40.4158 19.1895 39.3962 19.2551 39.4124C19.259 40.7145 18.0207 110.13 18.0207 110.13L78.4333 145.882L140.057 112.26C140.057 112.26 141.263 42.7839 141.325 41.5973C141.19 41.3 80.2742 40.4158 80.2742 40.4158Z" fill="#ECF0F1"/>
</g>
<path d="M18.0214 110.091C18.0253 111.393 17.9157 116.143 17.9157 116.143L78.3268 151.896L79.039 111.094C79.0405 111.094 17.9542 110.076 18.0214 110.091Z" fill="#2C3E50"/>
<path d="M19.2551 39.4123C19.259 40.7144 18.0207 110.13 18.0207 110.13L78.4333 145.882L80.2742 40.4157C80.2742 40.4157 19.188 39.3961 19.2551 39.4123Z" fill="#BDC3C7"/>
<path d="M80.3258 37.4604C80.3258 37.4604 16.1122 36.3862 16.1777 36.4024C16.1832 37.7045 16.0721 42.4546 16.0721 42.4546L79.5858 79.7653L144.363 44.6939C144.363 44.6939 144.395 39.8808 144.455 38.6942C144.319 38.3983 80.3258 37.4604 80.3258 37.4604Z" fill="#BDC3C7"/>
<path d="M88.9474 84.2441L100.026 78.4196L99.6852 97.9695L88.6063 103.791L88.9474 84.2441ZM104.784 75.4937L115.865 69.6692L115.523 89.2206L104.443 95.0421L104.784 75.4937ZM16.0768 42.456L79.4136 79.6628L79.5875 79.6659L80.3225 37.5581L16.1818 36.4385L16.1761 36.765C16.1687 37.9058 16.121 40.1899 16.0936 41.4915L16.0768 42.456ZM120.621 66.7448L131.704 60.9219L131.363 80.4703L120.28 86.2932L120.621 66.7448ZM88.5009 109.825L99.5799 104.001L99.2387 123.55L88.1597 129.375L88.5009 109.825ZM120.174 92.3243L131.258 86.5014L130.917 106.051L119.833 111.874L120.174 92.3243Z" fill="#95A5A6"/>
<path d="M104.165 111.613L115.245 105.79L114.788 132.004L103.703 138.051L104.165 111.613Z" fill="#2C3E50"/>
<path d="M104.348 101.079L115.429 95.2565L115.324 101.264L104.244 107.086L104.348 101.079Z" fill="#C0392C"/>
<path d="M80.9558 1.36712L16.1285 36.4377L79.6924 73.7493L144.617 38.6804L80.9558 1.36712Z" fill="#ECF0F1"/>
<path d="M80.85 7.42984L25.5153 36.6015L79.7982 67.6866L135.133 38.5149L80.85 7.42984Z" fill="#D48A6D"/>
<path d="M70.1245 83.9626L59.279 77.7554L58.9378 97.3053L69.7833 103.509L70.1245 83.9626ZM54.6373 74.6654L43.7919 68.4582L43.4506 88.0111L54.2961 94.2153L54.6373 74.6654ZM39.1502 65.3698L28.3047 59.1626L27.9635 78.711L38.8089 84.9182L39.1502 65.3698ZM69.6782 109.527L58.8327 103.323L58.4915 122.87L69.337 129.077L69.6782 109.527ZM54.1911 100.231L43.3456 94.0272L43.0044 113.574L53.8498 119.781L54.1911 100.231ZM38.7039 90.9357L27.8584 84.7285L27.5172 104.278L38.3627 110.486L38.7039 90.9357Z" fill="#7F8C8D"/>
<path d="M131.557 69.3806L120.463 75.7678L120.411 78.7758L131.504 72.3886L131.557 69.3806ZM131.11 94.9616L120.017 101.349L119.964 104.357L131.058 97.9681L131.11 94.9616ZM115.717 78.1294L104.627 84.5182L104.574 87.5247L115.664 81.1359L115.717 78.1294ZM99.8788 86.8783L88.7899 93.2671L88.7375 96.2736L99.8263 89.8878L99.8788 86.8783ZM99.4323 112.459L88.3434 118.848L88.291 121.855L99.3797 115.469L99.4323 112.459Z" fill="#BDC3C7"/>
<path d="M59.1313 86.215L59.0788 89.2245L69.9145 95.993L69.967 92.9865L59.1313 86.215ZM58.6851 111.781L58.6326 114.787L69.4682 121.559L69.5208 118.549L58.6851 111.781ZM43.1979 102.485L43.1454 105.492L53.9811 112.263L54.0336 109.254L43.1979 102.485ZM43.6442 76.9179L43.5917 79.9244L54.4273 86.6974L54.4798 83.6893L43.6442 76.9179ZM27.7061 93.1866L27.6536 96.1931L38.4939 102.968L38.5464 99.9581L27.7061 93.1866ZM28.1524 67.6191L28.0999 70.6272L38.9402 77.4002L38.9927 74.3922L28.1524 67.6191Z" fill="#95A5A6"/>
<path d="M80.7975 10.4394L132.369 39.9719L135.133 38.5149L80.85 7.42984L25.5153 36.6015L28.2263 38.1541L80.7975 10.4394Z" fill="#AA6F57"/>
</g>
<defs>
<filter id="filter0_d_115_6092" x="9.02069" y="39.4121" width="132.304" height="118.47" filterUnits="userSpaceOnUse" color-interpolation-filters="sRGB">
<feFlood flood-opacity="0" result="BackgroundImageFix"/>
<feColorMatrix in="SourceAlpha" type="matrix" values="0 0 0 0 0 0 0 0 0 0 0 0 0 0 0 0 0 0 127 0" result="hardAlpha"/>
<feOffset dx="-5" dy="8"/>
<feGaussianBlur stdDeviation="2"/>
<feComposite in2="hardAlpha" operator="out"/>
<feColorMatrix type="matrix" values="0 0 0 0 0 0 0 0 0 0 0 0 0 0 0 0 0 0 0.25 0"/>
<feBlend mode="normal" in2="BackgroundImageFix" result="effect1_dropShadow_115_6092"/>
<feBlend mode="normal" in="SourceGraphic" in2="effect1_dropShadow_115_6092" result="shape"/>
</filter>
<clipPath id="clip0_115_6092">
<rect width="156.762" height="150.553" fill="white" transform="translate(2.62756) rotate(1)"/>
</clipPath>
</defs>
</svg>
